<svg id="Слой_1" data-name="Слой 1" xmlns="http://www.w3.org/2000/svg" viewBox="0 0 8.31 16"><defs><style>.cls-1{fill:#92dd62;}.cls-2{fill:#2b7f17;}.cls-3{fill:#9e540a;}</style></defs><title>plant</title><path class="cls-1" d="M8.52,0c1.54,2.42,1.57,4.73,0,6.91C7.08,4.41,7,2.1,8.52,0Z" transform="translate(-4.24 0.05)"/><path class="cls-1" d="M4.25,3.94A5.31,5.31,0,0,1,7.94,9.77,5.47,5.47,0,0,1,4.25,3.94Z" transform="translate(-4.24 0.05)"/><path class="cls-1" d="M12.54,6.4C9.82,7.56,8.63,9.53,8.85,12.24A5.65,5.65,0,0,0,12.54,6.4Z" transform="translate(-4.24 0.05)"/><path class="cls-2" d="M8.71,7a4.43,4.43,0,0,1,0,2l-.3,1.84a14.16,14.16,0,0,0-.17,1.82,4.13,4.13,0,0,0,.24,1.67l-.77.3a5,5,0,0,1-.18-2,16.37,16.37,0,0,1,.3-1.88l.41-1.82a4.24,4.24,0,0,0,.13-1.75Z" transform="translate(-4.24 0.05)"/><path class="cls-3" d="M4.32,16h7.13s-.64-2.43-3.93-2.33A3.93,3.93,0,0,0,4.32,16Z" transform="translate(-4.24 0.05)"/></svg>